# xmcd
#
# Track frame offsets:
#	150
#	15565
#	28890
#	42910
#	57060
#	67767
#	82400
#	98467
#	115350
#	128532
#
# Disc length: 1887 seconds
# Revision: 3
# Processed by: cddbd v1.5.2PL0 Copyright (c) Steve Scherf et al.
# Submitted via: dBpowerAMP V12.0
#
DISCID=78075d0a
DTITLE=The Desert Rose Band - The Desert Rose Band
DYEAR=1987
DGENRE=Country
TTITLE0=One Step Forward
TTITLE1=Love Reunited
TTITLE2=He's Back and I'm Blue
TTITLE3=Leave This Town
TTITLE4=Time Between
TTITLE5=Ashes of Love
TTITLE6=One That Got Away
TTITLE7=Once More
TTITLE8=Glass Hearts
TTITLE9=Hard Times
EXTD=
EXTT0=
EXTT1=
EXTT2=
EXTT3=
EXTT4=
EXTT5=
EXTT6=
EXTT7=
EXTT8=
EXTT9=
PLAYORDER=
